<?xml version="1.0" encoding="UTF-8" standalone="no"?>
<!-- Created with Inkscape (http://www.inkscape.org/) -->

<svg
   width="76.162399mm"
   height="77.17585mm"
   viewBox="0 0 76.162399 77.17585"
   version="1.1"
   id="svg1"
   xml:space="preserve"
   xmlns:inkscape="http://www.inkscape.org/namespaces/inkscape"
   xmlns:sodipodi="http://sodipodi.sourceforge.net/DTD/sodipodi-0.dtd"
   xmlns="http://www.w3.org/2000/svg"
   xmlns:svg="http://www.w3.org/2000/svg"><sodipodi:namedview
     id="namedview1"
     pagecolor="#ffffff"
     bordercolor="#000000"
     borderopacity="0.25"
     inkscape:showpageshadow="2"
     inkscape:pageopacity="0.0"
     inkscape:pagecheckerboard="true"
     inkscape:deskcolor="#d1d1d1"
     inkscape:document-units="mm" /><defs
     id="defs1" /><g
     inkscape:label="Layer 1"
     inkscape:groupmode="layer"
     id="layer1"
     transform="translate(-65.660486,-123.57399)"><path
       style="fill:#000000"
       d="m 100.04491,200.34406 c -26.88216,-4.25644 -42.04894,-32.1819 -30.44016,-56.04717 16.07394,-33.04473 64.90983,-24.78399 71.63403,12.11711 4.45977,24.47432 -17.3277,47.70896 -41.19387,43.93006 z m -4.85069,-1.58709 c -0.097,-0.097 -0.25577,-0.097 -0.35278,0 -0.097,0.097 -0.0176,0.17639 0.17639,0.17639 0.19402,0 0.2734,-0.0794 0.17639,-0.17639 z m -0.79375,-0.26459 c -0.097,-0.097 -0.25577,-0.097 -0.35278,0 -0.097,0.097 -0.0176,0.17639 0.17639,0.17639 0.19402,0 0.2734,-0.0794 0.17639,-0.17639 z m 3.52778,0.0441 c 0,-0.0728 -0.0595,-0.13229 -0.1323,-0.13229 -0.0728,0 -0.13229,0.0595 -0.13229,0.13229 0,0.0728 0.0595,0.13229 0.13229,0.13229 0.0728,0 0.1323,-0.0595 0.1323,-0.13229 z m 18.97223,-0.80593 c 24.94623,-6.45777 32.49543,-41.9639 13.18133,-61.99575 -25.76931,-26.72695 -72.1088,-3.28488 -61.34327,31.03212 2.66416,8.49245 5.30725,11.01132 13.34133,12.71423 8.05775,1.70794 9.885,2.89033 14.97423,9.68965 6.40264,8.55406 11.45336,10.73244 19.84638,8.55975 z m -2.65626,-2.94233 c -0.36672,-0.36672 -0.14837,-0.58731 0.68351,-0.69055 0.85989,-0.10671 0.85989,-0.10671 -0.0999,-0.14906 -1.1119,-0.049 -1.67095,-0.57918 -1.42568,-1.35194 0.27497,-0.86636 2.19435,-1.11705 2.45935,-0.32122 0.0835,0.25083 -0.0956,0.3277 -0.61645,0.26458 -0.4474,-0.0542 -0.78126,0.0511 -0.85471,0.26953 -0.0867,0.25784 0.034,0.30944 0.42994,0.18378 0.65609,-0.20824 1.6288,0.25223 1.6288,0.77105 0,0.84696 -1.62647,1.60221 -2.20486,1.02383 z m 5.94693,-2.96959 c -0.30053,-0.19042 -0.30096,-0.26332 -0.003,-0.44767 0.26237,-0.16216 0.18263,-0.26083 -0.30248,-0.37427 -0.95462,-0.22323 -1.04892,-1.4072 -0.15856,-1.99058 0.40387,-0.26463 0.88282,-0.36609 1.22117,-0.2587 0.72046,0.22866 0.531,0.79324 -0.2662,0.79324 -0.33809,0 -0.65851,0.12959 -0.71204,0.28799 -0.0609,0.18013 0.32679,0.27923 1.03497,0.26459 0.9665,-0.02 1.14417,0.06 1.21348,0.54635 0.13018,0.91341 -1.21367,1.69483 -2.02767,1.17905 z m 1.15272,-0.82278 c 0.0899,-0.14552 -0.0221,-0.26458 -0.24897,-0.26458 -0.22687,0 -0.41249,0.11906 -0.41249,0.26458 0,0.14553 0.11204,0.26459 0.24897,0.26459 0.13693,0 0.32256,-0.11906 0.41249,-0.26459 z m 3.96875,-3.49332 c -1.07647,-0.60603 -1.24994,-1.73902 -0.39687,-2.59209 1.08436,-1.08437 2.64583,-0.34949 2.64583,1.24521 0,1.2013 -1.21502,1.92896 -2.24896,1.34688 z m 1.40305,-1.43394 c 0.10185,-0.71383 -0.69221,-1.05634 -1.22162,-0.52693 -0.53908,0.53908 -0.19565,1.27844 0.54499,1.17327 0.37124,-0.0527 0.62676,-0.29679 0.67663,-0.64634 z m 3.4256,-3.82518 c -0.25466,-0.14832 -0.46302,-0.44236 -0.46302,-0.65341 0,-0.23622 -0.26274,-0.38373 -0.68351,-0.38373 -0.83743,0 -0.734,-0.62209 0.12436,-0.74803 0.46838,-0.0687 0.5276,-0.1618 0.28723,-0.45143 -0.69387,-0.83606 0.0912,-0.86624 1.33747,-0.0514 1.48225,0.96911 1.56097,1.1928 0.70333,1.99851 -0.69742,0.6552 -0.68337,0.65208 -1.30586,0.28951 z m 0.85989,-0.88923 c 0,-0.0642 -0.11906,-0.19026 -0.26458,-0.2802 -0.14552,-0.0899 -0.26458,-0.0374 -0.26458,0.11668 0,0.15411 0.11906,0.28019 0.26458,0.28019 0.14552,0 0.26458,-0.0525 0.26458,-0.11667 z m -24.88435,-0.2609 c 1.54143,-0.85365 1.63237,-16.15422 0.0995,-16.74243 -0.27826,-0.10678 -0.49884,-0.0282 -0.57566,0.20522 -0.61323,1.86295 -2.40176,2.41253 -5.3732,1.65107 -2.91301,-0.74649 -4.29865,6.44604 -1.46201,7.58895 0.38049,0.1533 -0.50699,0.23289 -2.59699,0.23289 -1.92568,0 -2.96316,-0.0859 -2.63665,-0.21822 1.28913,-0.52253 1.31374,-0.68088 1.31374,-8.45401 0,-9.14274 0.28132,-8.48634 -3.64733,-8.51005 -2.32788,-0.014 -2.83929,-0.0796 -2.3734,-0.30437 1.89655,-0.91484 1.69049,-16.73263 -0.21559,-16.54948 -1.54857,0.1488 -3.20736,1.17619 -4.14467,2.56707 -0.75151,1.11516 -0.79048,0.54806 -0.117,-1.70261 0.64773,-2.1646 13.00167,-2.71194 13.54218,-0.59999 0.15893,0.62104 0.40221,1.47435 0.54062,1.89624 0.43444,1.3243 0.28423,1.32881 -0.86259,0.0259 -3.99394,-4.53735 -4.97118,-3.46753 -4.97118,5.44207 0,9.82673 -0.92804,8.71386 7.26658,8.71386 7.36611,0 6.91096,-0.21176 7.67727,3.57187 0.16076,0.79375 0.16076,0.79375 -0.31394,0.13281 -3.52458,-4.90738 -9.60283,-4.24287 -9.60283,1.04984 0,3.96078 0,3.96078 0.96297,3.3073 1.16334,-0.78947 1.32276,-0.79485 3.66808,-0.12383 1.85124,0.52966 1.85124,0.52966 2.59806,-0.0221 1.02587,-0.75796 11.63563,-0.68968 13.0543,0.084 2.96179,1.61525 2.56352,4.63352 -0.83197,6.30511 -1.7551,0.86404 -1.7551,0.86404 -0.9631,1.19705 0.93203,0.39189 1.30255,1.05568 2.2667,4.06081 1.18679,3.69909 1.88939,4.7428 2.92517,4.34533 0.54945,-0.21084 0.49752,0.26039 -0.087,0.78935 -1.83607,1.66162 -3.81346,-0.0264 -5.23452,-4.46855 -1.49099,-4.66073 -2.1823,-5.11444 -4.86259,-3.19132 -1.76939,1.26954 -1.9173,6.94724 -0.20253,7.77406 0.46828,0.2258 -0.0592,0.28972 -2.44567,0.29641 -2.70068,0.008 -2.96987,-0.0318 -2.39477,-0.35029 z m 10.00154,-11.98339 c 2.68729,-2.55889 1.03075,-4.57237 -3.76181,-4.57237 -2.52204,0 -2.52204,0 -2.52204,4.46417 0,4.64227 1.49523,4.66801 6.28385,0.1082 z m 15.94115,7.21881 c 0,-0.47858 0.57851,-1.47316 0.78327,-1.34661 0.29045,0.17951 -0.2018,1.46168 -0.56116,1.46168 -0.12216,0 -0.22211,-0.0518 -0.22211,-0.11507 z m 2.78733,-5.204 c -0.86675,-0.76102 -0.93525,-0.7804 -0.93525,-0.26459 0,0.33543 -0.16939,0.55658 -0.42632,0.55658 -0.34866,0 -0.39311,-0.18074 -0.24399,-0.99219 0.25947,-1.41199 0.4381,-1.48109 1.52113,-0.58836 0.9067,0.74738 0.97299,0.76352 1.12812,0.27475 0.33542,-1.0568 0.88759,-0.33045 0.60253,0.79259 -0.31892,1.25643 -0.4475,1.27371 -1.64622,0.22122 z m 1.91072,-5.68149 c -0.09,-0.09 -0.0996,-0.33063 -0.0213,-0.53468 0.0783,-0.20406 0.0106,-0.37101 -0.15052,-0.37101 -0.16109,0 -0.29289,0.17859 -0.29289,0.39688 0,0.21828 -0.17859,0.39687 -0.39687,0.39687 -0.22049,0 -0.39688,-0.23518 -0.39688,-0.52917 0,-0.29104 -0.11906,-0.52916 -0.26458,-0.52916 -0.14552,0 -0.26459,0.23812 -0.26459,0.52916 0,0.30352 -0.17638,0.52917 -0.41363,0.52917 -0.30729,0 -0.39233,-0.22109 -0.33073,-0.8599 0.13427,-1.39259 3.25791,-1.35031 3.25791,0.0441 0,0.84651 -0.35432,1.29934 -0.72591,0.92774 z m -2.1435,-6.41663 c -0.89974,-0.9942 -0.57811,-1.80625 0.78967,-1.99372 1.92312,-0.26359 1.94744,-0.25437 1.94744,0.73889 0,1.58845 -1.72111,2.3775 -2.73711,1.25483 z m 1.8854,-0.86098 c 0.0623,-0.3271 -0.0964,-0.39294 -0.7249,-0.3007 -0.44255,0.065 -0.80464,0.2038 -0.80464,0.30855 0,0.67783 1.40036,0.67064 1.52954,-0.008 z m -3.38162,-5.01447 c 0,-0.15064 0.19676,-0.57419 0.43725,-0.94122 0.43404,-0.66243 0.43211,-0.66603 -0.26459,-0.49117 -0.92546,0.23227 -0.98548,-0.58022 -0.0686,-0.92881 2.26117,-0.8597 3.12,-0.53731 1.94647,0.73067 -0.59531,0.64322 -0.59531,0.64322 0.26459,0.45905 1.40057,-0.29998 1.09755,0.5209 -0.37787,1.02362 -1.44039,0.4908 -1.93724,0.52872 -1.93724,0.14786 z m -2.20255,-5.65372 c -0.0784,-0.20424 -0.0778,-0.61884 0.001,-0.92132 0.10919,-0.41757 -0.0226,-0.61323 -0.54727,-0.81272 -1.33609,-0.50799 -0.37001,-1.0696 1.83992,-1.0696 1.27723,0 1.2924,0.31029 0.0891,1.82158 -1.20228,1.51 -1.18514,1.49783 -1.38306,0.98206 z m 1.01193,-1.74531 c 0.0899,-0.14552 0.0374,-0.26458 -0.11668,-0.26458 -0.15411,0 -0.2802,0.11906 -0.2802,0.26458 0,0.14552 0.0525,0.26459 0.11668,0.26459 0.0642,0 0.19026,-0.11907 0.2802,-0.26459 z m -4.74878,-3.94654 c -0.0824,-0.13331 -0.0299,-0.55778 0.11667,-0.94327 0.37603,-0.98903 0.33678,-1.07666 -0.24601,-0.54923 -0.47973,0.43414 -1.20026,0.35518 -1.02283,-0.11209 0.0441,-0.11604 0.60677,-0.64874 1.25047,-1.1838 1.28748,-1.07017 1.86593,-0.85771 1.35115,0.49627 -0.28745,0.75606 0.005,0.90736 0.53051,0.27432 0.25021,-0.30148 0.41418,-0.33024 0.62771,-0.11007 0.21111,0.21768 -0.0233,0.5773 -0.86948,1.33413 -1.20121,1.07431 -1.48476,1.20379 -1.73819,0.79374 z m -48.95427,-2.92493 c -0.56555,-0.5903 -0.9123,-0.75042 -1.37409,-0.63452 -0.88249,0.22149 -0.79799,-0.42432 0.17783,-1.35922 0.82037,-0.78596 1.90013,-0.60374 1.1092,0.18719 -0.24736,0.24736 -0.13017,0.51141 0.52865,1.19114 0.56692,0.58491 0.75868,0.96111 0.58065,1.13914 -0.17803,0.17803 -0.51562,0.005 -1.02224,-0.52373 z m 44.90565,-1.3668 c -0.1819,-0.18383 -0.33073,-0.56312 -0.33073,-0.84287 0,-0.40787 -0.074,-0.44726 -0.37332,-0.19882 -0.74926,0.62183 -0.73499,-0.26197 0.0199,-1.23279 0.41266,-0.53068 0.82461,-1.07388 0.91544,-1.2071 0.0918,-0.13467 0.47361,-0.0401 0.8599,0.213 0.90853,0.59529 0.93252,1.62027 0.0474,2.02357 -0.37826,0.17235 -0.68071,0.56189 -0.7276,0.9371 -0.0644,0.51576 -0.14533,0.57636 -0.41097,0.30791 z m 0.99219,-2.21277 c 0,-0.21828 -0.11204,-0.39687 -0.24897,-0.39687 -0.33363,0 -0.57258,0.41317 -0.3612,0.62455 0.29797,0.29797 0.61017,0.18148 0.61017,-0.22768 z m -41.7793,-0.39614 c -0.54173,-2.52602 -0.31584,-2.74962 1.54687,-1.53114 1.3461,0.88054 1.57344,1.37605 0.65385,1.42509 -1.02144,0.0545 -1.13208,0.11638 -1.215,0.6799 -0.16253,1.10452 -0.69186,0.79636 -0.98572,-0.57385 z m 1.03346,-0.79448 c 0,-0.14552 -0.12609,-0.26459 -0.2802,-0.26459 -0.15411,0 -0.20661,0.11907 -0.11668,0.26459 0.0899,0.14552 0.21603,0.26458 0.2802,0.26458 0.0642,0 0.11668,-0.11906 0.11668,-0.26458 z m 34.0632,-0.41692 c -0.78642,-0.4266 -0.71839,-0.76981 0.53317,-2.68976 0.36983,-0.56735 1.91613,-0.185 1.91613,0.47379 0,0.37706 -0.36669,0.48019 -0.82853,0.23302 -0.62485,-0.33441 -0.68347,0.15108 -0.0604,0.4998 0.65508,0.3666 0.17658,0.86958 -0.64868,0.68186 -0.71138,-0.16182 -0.71138,-0.16182 -0.11165,0.28171 1.04802,0.77506 0.42124,1.18209 -0.80008,0.51958 z m -29.3007,-1.56746 c -0.35908,-0.43266 -0.1881,-0.50283 0.99219,-0.40723 0.32742,0.0265 0.59531,-0.0722 0.59531,-0.21932 0,-0.14715 -0.44648,-0.3045 -0.99219,-0.34966 -0.7876,-0.0652 -1.00917,-0.20143 -1.07454,-0.66071 -0.11712,-0.82281 1.02787,-1.55558 1.79182,-1.14673 0.6553,0.3507 0.43596,0.90311 -0.28385,0.71487 -0.27448,-0.0718 -0.56119,-0.0299 -0.63714,0.0929 -0.0759,0.1229 0.31088,0.26055 0.85963,0.30589 0.82851,0.0685 1.01321,0.19212 1.089,0.72909 0.15975,1.13178 -1.59596,1.83765 -2.34023,0.94086 z M 111.73509,131.23 c -0.31072,-0.19204 -0.24493,-0.50427 0.60143,-2.85438 0.0841,-0.23358 0.34772,-0.23849 1.0605,-0.0197 1.00413,0.30817 1.13759,0.90349 0.17862,0.79673 -0.31138,-0.0347 -0.56614,0.0546 -0.56614,0.19844 0,0.1438 0.17859,0.26146 0.39687,0.26146 0.21828,0 0.39688,0.17859 0.39688,0.39687 0,0.24695 -0.24989,0.39688 -0.66146,0.39688 -0.39954,0 -0.66146,0.15097 -0.66146,0.38126 0,0.49459 -0.33708,0.69473 -0.74524,0.44247 z m -17.75367,-1.89509 c -0.36684,-1.71049 -0.36128,-1.83906 0.0795,-1.83906 0.20131,0 0.42829,0.23812 0.5044,0.52916 0.0761,0.29105 0.34102,0.52918 0.5887,0.52918 0.34824,0 0.41269,-0.14997 0.28432,-0.66147 -0.0957,-0.38143 -0.0519,-0.66146 0.1036,-0.66146 0.1483,0 0.3553,-0.006 0.46002,-0.0131 0.23409,-0.0161 0.86913,2.70753 0.69644,2.98695 -0.25612,0.41442 -0.88683,0.18112 -0.88683,-0.32803 0,-0.29398 -0.17639,-0.52916 -0.39688,-0.52916 -0.24694,0 -0.39687,0.24988 -0.39687,0.66145 0,1.22233 -0.73175,0.74612 -1.03641,-0.67448 z m 6.48085,-0.0531 c 1.09777,-3.46823 1.77132,-3.45829 2.88244,0.0425 0.20851,0.65696 -0.57372,0.80518 -0.82287,0.15592 -0.0838,-0.21828 -0.36494,-0.39688 -0.62484,-0.39688 -0.25991,0 -0.54109,0.1786 -0.62485,0.39688 -0.26174,0.68207 -1.02907,0.49406 -0.80988,-0.19844 z m 1.69931,-0.84428 c 0,-0.0642 -0.11906,-0.19026 -0.26458,-0.2802 -0.14552,-0.0899 -0.26459,-0.0374 -0.26459,0.11668 0,0.15411 0.11907,0.2802 0.26459,0.2802 0.14552,0 0.26458,-0.0525 0.26458,-0.11668 z m -8.55486,69.79029 c -0.097,-0.097 -0.25577,-0.097 -0.35278,0 -0.097,0.097 -0.0176,0.17639 0.17639,0.17639 0.19402,0 0.2734,-0.0794 0.17639,-0.17639 z m 3.52777,0.0441 c 0,-0.0728 -0.0595,-0.13229 -0.13229,-0.13229 -0.0728,0 -0.13229,0.0595 -0.13229,0.13229 0,0.0728 0.0595,0.13229 0.13229,0.13229 0.0728,0 0.13229,-0.0595 0.13229,-0.13229 z m 1.58751,0 c 0,-0.0728 -0.0595,-0.13229 -0.1323,-0.13229 -0.0728,0 -0.13229,0.0595 -0.13229,0.13229 0,0.0728 0.0595,0.13229 0.13229,0.13229 0.0728,0 0.1323,-0.0595 0.1323,-0.13229 z m -5.90903,-0.30868 c -0.097,-0.097 -0.25577,-0.097 -0.35278,0 -0.097,0.097 -0.0176,0.17639 0.17639,0.17639 0.19402,0 0.2734,-0.0794 0.17639,-0.17639 z m 1.94027,0.0441 c 0,-0.0728 -0.0595,-0.13229 -0.13229,-0.13229 -0.0728,0 -0.13229,0.0595 -0.13229,0.13229 0,0.0728 0.0595,0.1323 0.13229,0.1323 0.0728,0 0.13229,-0.0595 0.13229,-0.1323 z m 1.5875,0 c 0,-0.0728 -0.0595,-0.13229 -0.13229,-0.13229 -0.0728,0 -0.13229,0.0595 -0.13229,0.13229 0,0.0728 0.0595,0.1323 0.13229,0.1323 0.0728,0 0.13229,-0.0595 0.13229,-0.1323 z m 1.58751,0 c 0,-0.0728 -0.0595,-0.13229 -0.1323,-0.13229 -0.0728,0 -0.13229,0.0595 -0.13229,0.13229 0,0.0728 0.0595,0.1323 0.13229,0.1323 0.0728,0 0.1323,-0.0595 0.1323,-0.1323 z m -7.85688,-1.18164 c -2.88442,-1.35606 -6.79534,-3.67421 -8.94961,-5.30477 -0.96162,-0.72784 -1.66767,-1.19274 -1.56901,-1.03309 0.6832,1.10544 6.93659,5.09801 10.17341,6.49536 2.74751,1.18612 2.97875,1.08062 0.34521,-0.1575 z m 3.88812,0.91706 c 0,-0.0728 -0.0595,-0.13229 -0.13229,-0.13229 -0.0728,0 -0.13229,0.0595 -0.13229,0.13229 0,0.0728 0.0595,0.13229 0.13229,0.13229 0.0728,0 0.13229,-0.0595 0.13229,-0.13229 z m 1.5875,0 c 0,-0.0728 -0.0595,-0.13229 -0.13229,-0.13229 -0.0728,0 -0.13229,0.0595 -0.13229,0.13229 0,0.0728 0.0595,0.13229 0.13229,0.13229 0.0728,0 0.13229,-0.0595 0.13229,-0.13229 z m 1.5875,0 c 0,-0.0728 -0.0595,-0.13229 -0.13229,-0.13229 -0.0728,0 -0.13229,0.0595 -0.13229,0.13229 0,0.0728 0.0595,0.13229 0.13229,0.13229 0.0728,0 0.13229,-0.0595 0.13229,-0.13229 z m -3.79236,-0.30868 c -0.097,-0.097 -0.25576,-0.097 -0.35278,0 -0.097,0.097 -0.0176,0.17639 0.17639,0.17639 0.19403,0 0.27341,-0.0794 0.17639,-0.17639 z m 1.41111,-0.0882 c -0.21828,-0.14107 -0.51593,-0.25649 -0.66145,-0.25649 -0.14553,0 -0.086,0.11542 0.13229,0.25649 0.21828,0.14106 0.51593,0.25648 0.66146,0.25648 0.14552,0 0.086,-0.11542 -0.1323,-0.25648 z m 1.85209,0.13229 c 0,-0.0728 -0.0595,-0.13229 -0.13229,-0.13229 -0.0728,0 -0.1323,0.0595 -0.1323,0.13229 0,0.0728 0.0595,0.13229 0.1323,0.13229 0.0728,0 0.13229,-0.0595 0.13229,-0.13229 z m -7.80521,-2.20204 c -4.30155,-2.23039 -6.71374,-3.74408 -9.39271,-5.89408 -0.94589,-0.75911 -1.48167,-1.1095 -1.19063,-0.77863 1.67795,1.90754 7.92611,5.95004 12.15892,7.8667 3.2293,1.46227 2.54031,0.94014 -1.57558,-1.19399 z m 7.01146,1.93745 c 0,-0.0728 -0.0595,-0.13229 -0.13229,-0.13229 -0.0728,0 -0.1323,0.0595 -0.1323,0.13229 0,0.0728 0.0595,0.1323 0.1323,0.1323 0.0728,0 0.13229,-0.0595 0.13229,-0.1323 z m 1.5875,0 c 0,-0.0728 -0.0595,-0.13229 -0.13229,-0.13229 -0.0728,0 -0.1323,0.0595 -0.1323,0.13229 0,0.0728 0.0595,0.1323 0.1323,0.1323 0.0728,0 0.13229,-0.0595 0.13229,-0.1323 z m -7.67292,-2.33836 c -4.60341,-2.46692 -8.27838,-4.69356 -10.36886,-6.2824 -1.4051,-1.06793 -1.4051,-1.06793 -0.34677,-0.0905 2.19545,2.02767 13.27257,8.5488 14.55209,8.56685 0.14552,0.002 -1.58089,-0.98524 -3.83646,-2.19398 z m 5.55625,2.07378 c 0,-0.0728 -0.0595,-0.13229 -0.13229,-0.13229 -0.0728,0 -0.13229,0.0595 -0.13229,0.13229 0,0.0728 0.0595,0.13229 0.13229,0.13229 0.0728,0 0.13229,-0.0595 0.13229,-0.13229 z m -0.52917,-0.26458 c 0,-0.0728 -0.0595,-0.13229 -0.13229,-0.13229 -0.0728,0 -0.13229,0.0595 -0.13229,0.13229 0,0.0728 0.0595,0.13229 0.13229,0.13229 0.0728,0 0.13229,-0.0595 0.13229,-0.13229 z m 1.32292,0 c 0,-0.0728 -0.0595,-0.13229 -0.13229,-0.13229 -0.0728,0 -0.13229,0.0595 -0.13229,0.13229 0,0.0728 0.0595,0.13229 0.13229,0.13229 0.0728,0 0.13229,-0.0595 0.13229,-0.13229 z m -7.92955,-3.59003 c -3.4121,-1.90175 -6.98264,-3.9882 -7.93453,-4.63656 -1.07208,-0.73022 -1.38741,-0.87878 -0.8286,-0.39036 1.35399,1.18343 6.30231,4.19663 10.61401,6.46322 5.97538,3.14117 4.99001,2.37651 -1.85088,-1.4363 z m 7.40038,3.32544 c 0,-0.0728 -0.0595,-0.13229 -0.13229,-0.13229 -0.0728,0 -0.13229,0.0595 -0.13229,0.13229 0,0.0728 0.0595,0.1323 0.13229,0.1323 0.0728,0 0.13229,-0.0595 0.13229,-0.1323 z m -0.52916,-0.26458 c 0,-0.0728 -0.0595,-0.13229 -0.13229,-0.13229 -0.0728,0 -0.1323,0.0595 -0.1323,0.13229 0,0.0728 0.0595,0.13229 0.1323,0.13229 0.0728,0 0.13229,-0.0595 0.13229,-0.13229 z m 1.32291,0 c 0,-0.0728 -0.0595,-0.13229 -0.13229,-0.13229 -0.0728,0 -0.13229,0.0595 -0.13229,0.13229 0,0.0728 0.0595,0.13229 0.13229,0.13229 0.0728,0 0.13229,-0.0595 0.13229,-0.13229 z m -1.85208,-0.26458 c 0,-0.0728 -0.0595,-0.13229 -0.13229,-0.13229 -0.0728,0 -0.13229,0.0595 -0.13229,0.13229 0,0.0728 0.0595,0.13229 0.13229,0.13229 0.0728,0 0.13229,-0.0595 0.13229,-0.13229 z m 1.32292,0 c 0,-0.0728 -0.0595,-0.13229 -0.13229,-0.13229 -0.0728,0 -0.1323,0.0595 -0.1323,0.13229 0,0.0728 0.0595,0.13229 0.1323,0.13229 0.0728,0 0.13229,-0.0595 0.13229,-0.13229 z m -1.85209,-0.23884 c 0,-0.15468 -4.31949,-2.69803 -8.59853,-5.06287 -2.03706,-1.1258 -4.58304,-2.64025 -5.65773,-3.36544 -1.07469,-0.7252 -1.88233,-1.2026 -1.79476,-1.0609 0.54287,0.87838 16.05102,10.04665 16.05102,9.48921 z m 1.32292,-0.0257 c 0,-0.0728 -0.0595,-0.13229 -0.13229,-0.13229 -0.0728,0 -0.13229,0.0595 -0.13229,0.13229 0,0.0728 0.0595,0.1323 0.13229,0.1323 0.0728,0 0.13229,-0.0595 0.13229,-0.1323 z m -0.52917,-0.26458 c 0,-0.0728 -0.0595,-0.13229 -0.13229,-0.13229 -0.0728,0 -0.13229,0.0595 -0.13229,0.13229 0,0.0728 0.0595,0.13229 0.13229,0.13229 0.0728,0 0.13229,-0.0595 0.13229,-0.13229 z m 1.32292,0 c 0,-0.0728 -0.0595,-0.13229 -0.13229,-0.13229 -0.0728,0 -0.13229,0.0595 -0.13229,0.13229 0,0.0728 0.0595,0.13229 0.13229,0.13229 0.0728,0 0.13229,-0.0595 0.13229,-0.13229 z m 1.05833,0 c 0,-0.0728 -0.0595,-0.13229 -0.13229,-0.13229 -0.0728,0 -0.13229,0.0595 -0.13229,0.13229 0,0.0728 0.0595,0.13229 0.13229,0.13229 0.0728,0 0.13229,-0.0595 0.13229,-0.13229 z m -3.05593,-0.3608 c -0.88852,-0.80776 -5.08638,-3.37087 -8.82904,-5.39079 -2.4128,-1.30219 -5.27987,-2.95017 -6.37128,-3.66218 -1.0914,-0.71201 -1.60749,-0.96879 -1.14685,-0.57061 1.09955,0.95047 5.31851,3.51596 10.37574,6.30933 2.23822,1.23629 4.49829,2.53917 5.02235,2.89528 0.94621,0.64296 1.43075,0.85686 0.94908,0.41897 z m 1.46843,0.10553 c 0,-0.0676 -0.26789,-0.25281 -0.59531,-0.41148 -0.57166,-0.27702 -0.57491,-0.27214 -0.0817,0.12299 0.53982,0.43248 0.67704,0.49095 0.67704,0.28849 z m 1.05834,0.006 c 0,-0.0642 -0.13746,-0.20163 -0.30547,-0.30546 -0.18925,-0.11697 -0.23364,-0.0726 -0.11667,0.11667 0.1885,0.305 0.42214,0.40949 0.42214,0.18879 z m 0.52916,-0.2802 c 0,-0.0728 -0.0595,-0.13229 -0.13229,-0.13229 -0.0728,0 -0.13229,0.0595 -0.13229,0.13229 0,0.0728 0.0595,0.1323 0.13229,0.1323 0.0728,0 0.13229,-0.0595 0.13229,-0.1323 z m -1.40336,-0.30093 c -1.65951,-1.65951 -6.92307,-4.986 -11.69351,-7.39012 -3.05594,-1.54008 -5.28816,-2.58275 -4.9605,-2.31705 0.32767,0.26571 2.75917,1.6142 5.40334,2.99664 2.64418,1.38245 6.24562,3.49438 8.00321,4.69318 2.9127,1.98666 3.71545,2.48534 3.24746,2.01735 z m -1.60832,-0.31033 c -0.35856,-0.58015 -5.14827,-3.51086 -9.85427,-6.02958 -2.8919,-1.54778 -5.60693,-3.06168 -6.03338,-3.36421 -0.42646,-0.30253 -0.69102,-0.41356 -0.58791,-0.24673 0.25587,0.41401 3.79352,2.50272 8.17892,4.829 2.00236,1.06217 4.68126,2.61751 5.95313,3.4563 2.50752,1.65371 2.53937,1.67213 2.34351,1.35522 z m 2.21793,0.0977 c 0,-0.0642 -0.13745,-0.20163 -0.30546,-0.30546 -0.18926,-0.11697 -0.23364,-0.0726 -0.11668,0.11667 0.1885,0.305 0.42214,0.40949 0.42214,0.18879 z m 0.26459,-0.52917 c 0,-0.0642 -0.13746,-0.20163 -0.30547,-0.30546 -0.18925,-0.11697 -0.23364,-0.0726 -0.11667,0.11668 0.1885,0.305 0.42214,0.40948 0.42214,0.18878 z m 0.79375,0.0168 c 0,-0.055 -0.20836,-0.2633 -0.46302,-0.46302 -0.41965,-0.32911 -0.42901,-0.31975 -0.0999,0.0999 0.34564,0.44073 0.56291,0.58089 0.56291,0.36313 z m -2.11667,-0.26459 c 0,-0.0549 -0.20836,-0.2633 -0.46302,-0.46302 -0.41964,-0.3291 -0.429,-0.31975 -0.0999,0.0999 0.34564,0.44073 0.56292,0.58088 0.56292,0.36312 z m 0.26458,-0.51544 c 0,-0.0474 -0.32742,-0.37482 -0.7276,-0.7276 -0.7276,-0.64144 -0.7276,-0.64144 -0.0862,0.0862 0.59952,0.68005 0.81377,0.84894 0.81377,0.64143 z m -0.30985,-2.85364 c -4.2374,-4.5583 -5.77606,-5.52155 -12.42886,-7.78091 -4.2848,-1.45515 -6.07592,-1.83622 -2.68814,-0.5719 0.99044,0.36963 2.99144,1.11436 4.44665,1.65495 4.15305,1.54281 8.78752,4.24563 8.23216,4.801 -0.0795,0.0795 -0.55845,-0.21877 -1.06427,-0.66288 -1.57232,-1.38053 -4.34758,-2.75885 -9.00714,-4.47338 -5.85079,-2.15285 -5.91185,-1.95505 -0.10687,0.3462 5.42175,2.14933 8.32341,3.80919 11.04716,6.31944 2.00962,1.85208 2.00962,1.85208 0.5953,0.19844 -2.10992,-2.46695 -1.31919,-1.99636 1.22261,0.7276 1.2221,1.30969 2.28101,2.38125 2.35313,2.38125 0.0721,0 -1.09866,-1.32292 -2.60173,-2.93981 z m -1.01306,2.55434 c 0,-0.86632 -5.77067,-4.42471 -11.42175,-7.04305 -6.04126,-2.79911 -5.39946,-2.29135 1.49987,1.18663 3.13389,1.57981 6.47906,3.48269 7.67292,4.3647 2.30846,1.70546 2.24896,1.66599 2.24896,1.49172 z m 0.25554,-1.61348 c -3.39502,-3.45047 -8.28398,-6.15081 -15.73367,-8.69022 -1.06781,-0.36399 2.74254,1.46279 6.04418,2.89774 4.65154,2.02163 7.89778,4.11354 10.20767,6.57793 0.35279,0.37638 0.70591,0.68433 0.78471,0.68433 0.0788,0 -0.50749,-0.6614 -1.30289,-1.46978 z m 4.24238,1.3785 c 0,-0.0502 -0.26789,-0.3181 -0.59532,-0.59531 -0.59531,-0.50403 -0.59531,-0.50403 -0.0913,0.0913 0.47366,0.55945 0.6866,0.71576 0.6866,0.50403 z m -5.44061,-1.5249 c -1.72191,-1.82237 -5.36085,-3.96166 -10.30211,-6.05648 -1.4552,-0.61693 -3.21138,-1.40715 -3.9026,-1.75605 -0.69122,-0.3489 -1.25677,-0.56868 -1.25677,-0.4884 0,0.0803 2.7682,1.5055 6.15156,3.16716 4.07278,2.00025 6.77744,3.50853 8.00365,4.46334 2.16329,1.68448 2.35965,1.78526 1.30627,0.67043 z m 4.11769,0.74205 c 0,-0.0442 -0.44649,-0.4907 -0.99219,-0.99219 -0.99219,-0.9118 -0.99219,-0.9118 -0.0804,0.0804 0.84868,0.9235 1.07258,1.11384 1.07258,0.9118 z m -1.47189,-2.4993 c -4.43377,-5.53644 -6.24464,-6.67353 -13.57531,-8.52422 -4.38547,-1.10716 -4.36688,-0.86168 0.0272,0.35929 6.33209,1.75947 9.84481,3.85822 12.91461,7.71609 0.74646,0.93808 1.42082,1.70561 1.49858,1.70561 0.0778,0 -0.31153,-0.56555 -0.86509,-1.25677 z m -17.04895,0.65151 c 0,-0.0419 -0.62508,-0.66693 -1.38906,-1.38906 -1.38906,-1.31297 -1.38906,-1.31297 -0.0761,0.0761 1.22004,1.29074 1.46516,1.5104 1.46516,1.31297 z m 16.12563,-0.9161 c -3.84603,-4.40438 -5.72455,-5.51929 -12.78094,-7.58552 -2.20338,-0.64519 -4.2145,-1.25407 -4.46917,-1.35307 -0.25466,-0.099 -0.46302,-0.11762 -0.46302,-0.0414 0,0.0763 2.05383,0.81848 4.56407,1.64941 6.18893,2.04863 8.76313,3.39669 11.44323,5.9926 2.18002,2.11154 2.81895,2.61268 1.70583,1.33796 z m 1.86604,0.61093 c 0,-0.0642 -0.13746,-0.20163 -0.30546,-0.30546 -0.18926,-0.11697 -0.23365,-0.0726 -0.11668,0.11667 0.1885,0.305 0.42214,0.40949 0.42214,0.18879 z m -1.63721,-2.19392 c -3.00789,-4.2982 -5.88175,-5.95878 -12.89677,-7.45204 -4.76562,-1.01444 -5.17741,-0.88379 -0.63135,0.20031 7.16851,1.70948 10.49602,3.52347 13.18645,7.18857 1.22958,1.67502 1.50533,1.726 0.34167,0.0632 z m -17.67737,-0.16194 c 0,-0.0502 -0.26789,-0.31809 -0.59532,-0.59531 -0.59531,-0.50403 -0.59531,-0.50403 -0.0913,0.0913 0.47367,0.55944 0.6866,0.71576 0.6866,0.50402 z m 0.79375,0 c 0,-0.0502 -0.26789,-0.31809 -0.59532,-0.59531 -0.59531,-0.50403 -0.59531,-0.50403 -0.0913,0.0913 0.47367,0.55944 0.6866,0.71576 0.6866,0.50402 z m -0.79375,-1.32291 c 0,-0.0502 -0.26789,-0.3181 -0.59532,-0.59532 -0.59531,-0.50402 -0.59531,-0.50402 -0.0913,0.0913 0.47367,0.55945 0.6866,0.71576 0.6866,0.50403 z m -0.79375,-1.33153 c 0,-0.0549 -0.20836,-0.2633 -0.46302,-0.46302 -0.41965,-0.32911 -0.42901,-0.31975 -0.0999,0.0999 0.34564,0.44073 0.56291,0.58089 0.56291,0.36313 z m 0.52916,-0.28137 c 0,-0.0642 -0.13746,-0.20163 -0.30546,-0.30546 -0.18926,-0.11697 -0.23364,-0.0726 -0.11668,0.11668 0.1885,0.305 0.42214,0.40948 0.42214,0.18878 z m 1.05834,-0.006 c 0,-0.0676 -0.26789,-0.2528 -0.59532,-0.41147 -0.57166,-0.27703 -0.57491,-0.27215 -0.0817,0.12298 0.53982,0.43249 0.67704,0.49095 0.67704,0.28849 z m -0.26459,-0.78745 c 0,-0.0642 -0.13746,-0.20163 -0.30546,-0.30546 -0.18926,-0.11697 -0.23364,-0.0726 -0.11668,0.11668 0.1885,0.305 0.42214,0.40948 0.42214,0.18878 z m -1.5875,-0.54478 c 0,-0.0728 -0.0595,-0.13229 -0.13229,-0.13229 -0.0728,0 -0.13229,0.0595 -0.13229,0.13229 0,0.0728 0.0595,0.13229 0.13229,0.13229 0.0728,0 0.13229,-0.0595 0.13229,-0.13229 z m 0.79375,0 c 0,-0.0728 -0.0595,-0.13229 -0.13229,-0.13229 -0.0728,0 -0.13229,0.0595 -0.13229,0.13229 0,0.0728 0.0595,0.13229 0.13229,0.13229 0.0728,0 0.13229,-0.0595 0.13229,-0.13229 z m -0.79375,-0.52916 c 0,-0.0728 -0.0595,-0.1323 -0.13229,-0.1323 -0.0728,0 -0.13229,0.0595 -0.13229,0.1323 0,0.0728 0.0595,0.13229 0.13229,0.13229 0.0728,0 0.13229,-0.0595 0.13229,-0.13229 z m 1.05834,0 c 0,-0.0728 -0.0595,-0.1323 -0.1323,-0.1323 -0.0728,0 -0.13229,0.0595 -0.13229,0.1323 0,0.0728 0.0595,0.13229 0.13229,0.13229 0.0728,0 0.1323,-0.0595 0.1323,-0.13229 z m -0.52917,-0.26459 c 0,-0.0728 -0.0595,-0.13229 -0.13229,-0.13229 -0.0728,0 -0.13229,0.0595 -0.13229,0.13229 0,0.0728 0.0595,0.13229 0.13229,0.13229 0.0728,0 0.13229,-0.0595 0.13229,-0.13229 z m 1.05833,0 c 0,-0.0728 -0.0595,-0.13229 -0.13229,-0.13229 -0.0728,0 -0.13229,0.0595 -0.13229,0.13229 0,0.0728 0.0595,0.13229 0.13229,0.13229 0.0728,0 0.13229,-0.0595 0.13229,-0.13229 z m -0.52916,-0.26458 c 0,-0.0728 -0.0595,-0.13229 -0.1323,-0.13229 -0.0728,0 -0.13229,0.0595 -0.13229,0.13229 0,0.0728 0.0595,0.13229 0.13229,0.13229 0.0728,0 0.1323,-0.0595 0.1323,-0.13229 z m -1.32292,-0.26465 c 0,-0.0728 -0.0595,-0.1323 -0.13229,-0.1323 -0.0728,0 -0.13229,0.0595 -0.13229,0.1323 0,0.0728 0.0595,0.13229 0.13229,0.13229 0.0728,0 0.13229,-0.0595 0.13229,-0.13229 z m 0.52917,-0.26459 c 0,-0.0728 -0.0595,-0.13229 -0.1323,-0.13229 -0.0728,0 -0.13229,0.0595 -0.13229,0.13229 0,0.0728 0.0595,0.13229 0.13229,0.13229 0.0728,0 0.1323,-0.0595 0.1323,-0.13229 z m 1.05833,0 c 0,-0.0728 -0.0595,-0.13229 -0.13229,-0.13229 -0.0728,0 -0.13229,0.0595 -0.13229,0.13229 0,0.0728 0.0595,0.13229 0.13229,0.13229 0.0728,0 0.13229,-0.0595 0.13229,-0.13229 z m -0.52917,-0.26458 c 0,-0.0728 -0.0595,-0.13229 -0.13229,-0.13229 -0.0728,0 -0.13229,0.0595 -0.13229,0.13229 0,0.0728 0.0595,0.13229 0.13229,0.13229 0.0728,0 0.13229,-0.0595 0.13229,-0.13229 z m 0.79375,-0.26458 c 0,-0.0728 -0.0595,-0.1323 -0.13229,-0.1323 -0.0728,0 -0.13229,0.0595 -0.13229,0.1323 0,0.0728 0.0595,0.13229 0.13229,0.13229 0.0728,0 0.13229,-0.0595 0.13229,-0.13229 z m -0.52916,-0.26459 c 0,-0.0728 -0.0595,-0.13229 -0.1323,-0.13229 -0.0728,0 -0.13229,0.0595 -0.13229,0.13229 0,0.0728 0.0595,0.13229 0.13229,0.13229 0.0728,0 0.1323,-0.0595 0.1323,-0.13229 z m -1.5875,-0.26458 c 0,-0.0728 -0.0595,-0.13229 -0.1323,-0.13229 -0.0728,0 -0.13229,0.0595 -0.13229,0.13229 0,0.0728 0.0595,0.13229 0.13229,0.13229 0.0728,0 0.1323,-0.0595 0.1323,-0.13229 z m 0,-0.52917 c 0,-0.0728 -0.0595,-0.13229 -0.1323,-0.13229 -0.0728,0 -0.13229,0.0595 -0.13229,0.13229 0,0.0728 0.0595,0.13229 0.13229,0.13229 0.0728,0 0.1323,-0.0595 0.1323,-0.13229 z m 1.05833,0 c 0,-0.0728 -0.0595,-0.13229 -0.13229,-0.13229 -0.0728,0 -0.13229,0.0595 -0.13229,0.13229 0,0.0728 0.0595,0.13229 0.13229,0.13229 0.0728,0 0.13229,-0.0595 0.13229,-0.13229 z m 1.49931,-0.0441 c -0.097,-0.097 -0.25577,-0.097 -0.35278,0 -0.097,0.097 -0.0176,0.17638 0.17639,0.17638 0.19402,0 0.2734,-0.0794 0.17639,-0.17638 z m -2.02848,-0.22049 c 0,-0.0728 -0.0595,-0.13229 -0.13229,-0.13229 -0.0728,0 -0.13229,0.0595 -0.13229,0.13229 0,0.0728 0.0595,0.13229 0.13229,0.13229 0.0728,0 0.13229,-0.0595 0.13229,-0.13229 z m 1.05834,-0.13229 c -0.21828,-0.14107 -0.51594,-0.25648 -0.66146,-0.25648 -0.14552,0 -0.086,0.11541 0.13229,0.25648 0.21828,0.14106 0.51594,0.25648 0.66146,0.25648 0.14552,0 0.086,-0.11542 -0.13229,-0.25648 z m -1.5875,-0.13229 c 0,-0.0728 -0.0595,-0.1323 -0.1323,-0.1323 -0.0728,0 -0.13229,0.0595 -0.13229,0.1323 0,0.0728 0.0595,0.13229 0.13229,0.13229 0.0728,0 0.1323,-0.0595 0.1323,-0.13229 z m 0.52916,-0.26459 c 0,-0.0728 -0.0595,-0.13229 -0.13229,-0.13229 -0.0728,0 -0.13229,0.0595 -0.13229,0.13229 0,0.0728 0.0595,0.13229 0.13229,0.13229 0.0728,0 0.13229,-0.0595 0.13229,-0.13229 z m 1.49931,-0.0441 c -0.097,-0.097 -0.25577,-0.097 -0.35278,0 -0.097,0.097 -0.0176,0.17638 0.17639,0.17638 0.19403,0 0.2734,-0.0794 0.17639,-0.17638 z m -2.02847,-0.22049 c 0,-0.0728 -0.0595,-0.13229 -0.1323,-0.13229 -0.0728,0 -0.13229,0.0595 -0.13229,0.13229 0,0.0728 0.0595,0.13229 0.13229,0.13229 0.0728,0 0.1323,-0.0595 0.1323,-0.13229 z m 1.30086,0.0358 c -0.0606,-0.0531 -0.40789,-0.23821 -0.7717,-0.41147 -0.62369,-0.29704 -0.63213,-0.29153 -0.14786,0.0965 0.42148,0.33768 1.28266,0.63269 0.91956,0.31502 z"
       id="path1"
       inkscape:export-filename="TFRLogo.svg"
       inkscape:export-xdpi="56.694649"
       inkscape:export-ydpi="56.694649" /></g></svg>
