<?xml version="1.0"?>
<svg version="1.1" xmlns="http://www.w3.org/2000/svg" width="25rem" height="3.125rem" style=""><path fill="#ffffff" d="M50.98,43.655q0-3.78,2.24-7.49q-2.59-1.645-2.59-4.865q0-3.885,3.43-6.895q3.85-3.395,9.94-3.395q2.8,0,6.02,0.805q0.735,0.175,6.265,2.7125t7.945,2.5375q1.61,0,2.415-0.91q0.42-0.455,0.42-0.98t-0.455-0.945q-0.245-0.35-0.245-0.455t0.1925-0.105t0.665,0.6125t0.4725,1.435t-1.1025,1.575t-2.7825,0.7525q-2.625,0-8.155-2.5375t-6.9475-2.8175t-3.2375-0.28q-7.245,0-11.41,4.69q-0.49,0.525-1.155,2.1175t-0.665,3.0625q0,2.03,1.435,3.15q1.82-2.66,4.305-4.235t5.04-1.575q3.15,0,3.15,2.45q0,2.94-3.4475,6.3875t-6.3875,3.4475q-1.89,0-1.89-1.61q0-0.56,0.2975-0.98t0.7175-0.315l-0.07,0.805q0,0.525,1.61,0.525q2.38,0,5.0225-2.45t3.2025-4.795q0.14-0.525,0.14-0.945q0-1.575-2.0125-1.575t-4.165,1.54t-4.0425,4.06q0.14,0.07,1.085,0.28l2.1,0.07q1.54,0.07,1.54,0.35q0,0.49-1.47,0.49l-0.21,0q-2.135,0-3.5-0.525q-2.695,4.13-2.695,7.595q0,4.48,3.465,4.48q3.92,0,8.155-5.46l6.86-10.22q3.85-5.6,6.685-5.74l1.33,0.315q0.63,0.35,0.63,1.05t-0.35,0.7l-1.12-0.175q-2.415,0-6.195,5.215l-6.965,9.73q-4.48,5.215-8.575,5.215q-2.8,0-3.8675-1.505t-1.0675-4.375z M86.30095,35.535l0.49-0.105q0.385,0,0.735,0.315t0.35,0.49t-2.17,3.3775t-2.17,4.4625q0,0.105,0.035,0.21q0.175,0.805,0.77,0.805q1.82,0,6.65-6.02q0.105-0.14,0.245-0.14t0.14,0.2625t-0.315,0.6825q-4.48,5.985-6.825,5.985q-0.315,0-0.595-0.105q-1.54-0.595-1.54-2.31q0-0.595,0.14-1.19l-2.17,2.1q-2.065,1.82-2.9925,1.82t-1.7675-0.595q-0.945-0.7-0.945-1.855q0-2.555,3.57-6.1075t6.545-3.5525q1.155,0,1.54,0.805q0.105,0.28,0.175,0.4725t0.105,0.1925z M75.83595,44.145q0,1.26,0.875,1.26q2.03,0,5.53-4.445l3.71-5.11q-0.28-0.49-0.91-0.49q-2.135,0-5.67,3.3075t-3.535,5.4775z M97.0869,45.475q-1.015,0.595-2.5025,0.595t-2.275-0.98t-1.3475-3.115q-0.63,0.63-0.875,0.63q-0.175,0-0.175-0.245t0.175-0.42q1.155-1.435,3.92-4.13l4.41-4.13q1.89-1.785,2.24-1.785q1.12,0,1.12,0.84q0,0.42-0.3325,0.8225t-0.49,0.63t-0.3325,0.4375q-0.63,1.085-1.2775,4.48t-0.9975,4.725q2.905-0.035,5.985-3.78q0.35-0.35,0.525-0.35t0.175,0.2275t-0.315,0.6125q-2.03,2.38-3.78,3.325q-1.05,0.525-2.73,0.875z M92.3619,41.59q0,1.19,0.7875,1.9425t1.7675,0.7525t1.505-0.385q0.7-0.385,1.3825-3.22t0.8225-5.005l0.14-1.19q-1.925,1.435-4.1125,3.71t-2.2575,3.01q-0.035,0.21-0.035,0.385z M113.05285,45.86q-2.065,0-2.065-2.415q0-1.365,0.9625-3.0275t2.3625-3.9025q-4.48,2.24-8.12,6.615q-2.03,3.045-2.38,3.045q-1.015,0-1.015-0.595q0-0.315,0.42-1.12q3.395-6.055,5.145-8.855q4.165-6.685,5.88-7.245q0.07-0.035,0.14-0.035q0.455,0,0.63,0.735q-0.105,0.735-3.64,5.32q-3.675,4.655-4.165,6.09q1.295-0.945,4.515-3.185q3.465-2.415,4.585-2.415t1.12,0.875q0,0.14-0.0175,0.1925t-2.4325,3.3075t-2.415,4.795q0,0.805,0.595,0.805q1.89-0.07,5.67-4.55q0.315-0.315,0.4725-0.315t0.1575,0.21q0,0.7-3.465,3.78q-2.17,1.89-2.94,1.89z M131.0838,35.535l0.49-0.105q0.385,0,0.735,0.315t0.35,0.49t-2.17,3.3775t-2.17,4.4625q0,0.105,0.035,0.21q0.175,0.805,0.77,0.805q1.82,0,6.65-6.02q0.105-0.14,0.245-0.14t0.14,0.2625t-0.315,0.6825q-4.48,5.985-6.825,5.985q-0.315,0-0.595-0.105q-1.54-0.595-1.54-2.31q0-0.595,0.14-1.19l-2.17,2.1q-2.065,1.82-2.9925,1.82t-1.7675-0.595q-0.945-0.7-0.945-1.855q0-2.555,3.57-6.1075t6.545-3.5525q1.155,0,1.54,0.805q0.105,0.28,0.175,0.4725t0.105,0.1925z M120.6188,44.145q0,1.26,0.875,1.26q2.03,0,5.53-4.445l3.71-5.11q-0.28-0.49-0.91-0.49q-2.135,0-5.67,3.3075t-3.535,5.4775z M162.3857,37.215q3.395,0.105,3.5875,0.105l0.2275,0q0.84-0.07,0.84,0.245q0,0.49-1.365,0.49l-2.975-0.07q-0.91,0.07-1.085,0.175q-1.47,1.82-3.955,5.2675t-2.485,4.1125q0,0.28,0.63-0.14q0.385,0,0.385,0.105q0,0.175-0.77,0.525l-0.98,0.525q-0.665,0.56-1.5225,0.56t-0.7875-0.42q0.035-0.84,2.485-4.2525t5.075-6.4925q-2.52,0.455-3.85,0.455q-0.14-0.035-0.14-0.2275t0.42-0.5425t0.8925-0.35t1.5225-0.035l1.785,0q1.19-1.61,5.285-7.42q1.68-2.415,1.68-3.99q0-2.45-3.64-2.45q-2.835,0-6.6675,1.575t-7.0525,4.305q-2.275,1.89-3.605,4.095t-1.33,3.92q0,2.765,3.29,2.765q0.28,0,0.595-0.035q2.135-0.175,4.0425-2.4325t1.9075-3.7975q0-0.14-0.035-0.315q0.91,0.175,0.91,1.085q0,1.505-1.96,3.535q-2.66,2.765-6.16,2.765q-1.925,0-3.01-1.015t-1.085-2.765q0-4.13,5.04-8.33q3.64-2.975,7.735-4.4975t7.1225-1.5225t4.515,0.875t1.4875,2.4325t-1.365,3.5175q-0.805,1.295-5.635,7.665z M169.35665,46.455q-0.385,0-0.7-0.105q-2.24-0.63-2.24-2.52q0-2.45,3.08-5.67t5.53-3.22q0.805,0,1.3125,0.4375t0.5075,1.0675q0,1.96-2.9575,3.745t-4.8125,1.785q-0.28,0-0.49-0.07q-0.525,0.945-0.525,1.995q0,1.82,1.7325,1.82t4.4975-2.345q2.135-1.715,3.64-3.64q0.315-0.42,0.5425-0.42t0.2275,0.21t-0.28,0.595q-1.89,2.485-4.55,4.41t-4.515,1.925z M175.97165,36.375q0-0.42-0.8925-0.42t-2.5375,1.365q-2.205,1.82-3.43,3.815q0.21,0.07,0.455,0.07q1.33,0,3.5525-1.4175t2.7825-3.0975q0.07-0.175,0.07-0.315z M185.2526,46.175q-2.625,0-2.625-2.905q0-1.47,0.77-3.22t1.68-2.94q-0.175,0.035-0.455,0.035q-0.84,0-1.4-1.19l-2.59,3.36q-2.17,2.695-2.52,2.695q-0.175,0-0.175-0.14q0-0.35,0.595-1.015q3.045-3.535,4.305-5.985q0.805-3.045,2.03-3.045q0.805,0,0.805,0.7t-0.875,1.785l-0.84,1.12q0,0.735,1.085,0.735q0.63,0,1.4-0.455l0.91-0.56q0.07-0.035,0.35-0.035t0.595,0.35t0.21,0.63l-2.415,3.045q-2.24,2.87-2.24,4.5325t1.54,1.6625q1.61,0,3.955-1.715q1.4-1.015,2.555-2.275q1.085-1.26,1.19-1.26q0.245,0,0.245,0.2625t-0.315,0.6125l-1.12,1.26q-0.945,0.98-2.1,1.89q-2.765,2.065-4.55,2.065z M199.08355,34.94q0.945,0,0.945,0.735q0,0.21-0.105,0.42q-3.15,4.375-3.78,6.615q8.155-8.155,9.905-8.155q0.175-0.035,0.315-0.035q0.98,0,0.98,0.875q0,0.175-0.07,0.35t-1.4,1.89q-1.54,1.82-2.6075,3.5t-1.0675,2.8t0.49,1.12q1.54,0,5.355-4.235q0.07-0.07,0.245-0.315q0.525-0.63,0.63-0.63t0.105,0.35t-0.49,0.91q-4.34,4.935-6.16,4.935q-1.715,0-1.715-1.89t1.4-4.34l2.24-3.64q-2.38,1.75-4.235,3.8325t-3.3775,4.0425t-1.7675,1.96q-0.525,0-0.8225-0.4375t-0.2975-1.085t0.455-1.7325t1.155-2.625l-2.1,2.205q-0.77,0.77-0.9625,0.77t-0.1925-0.2275t0.28-0.5075q1.295-1.295,2.24-2.485q0.91-1.19,3.745-4.55q0.315-0.42,0.665-0.42z M220.7195,35.535l0.49-0.105q0.385,0,0.735,0.315t0.35,0.49t-2.17,3.3775t-2.17,4.4625q0,0.105,0.035,0.21q0.175,0.805,0.77,0.805q1.82,0,6.65-6.02q0.105-0.14,0.245-0.14t0.14,0.2625t-0.315,0.6825q-4.48,5.985-6.825,5.985q-0.315,0-0.595-0.105q-1.54-0.595-1.54-2.31q0-0.595,0.14-1.19l-2.17,2.1q-2.065,1.82-2.9925,1.82t-1.7675-0.595q-0.945-0.7-0.945-1.855q0-2.555,3.57-6.1075t6.545-3.5525q1.155,0,1.54,0.805q0.105,0.28,0.175,0.4725t0.105,0.1925z M210.2545,44.145q0,1.26,0.875,1.26q2.03,0,5.53-4.445l3.71-5.11q-0.28-0.49-0.91-0.49q-2.135,0-5.67,3.3075t-3.535,5.4775z M230.70045,34.94q0.945,0,0.945,0.735q0,0.21-0.105,0.42q-3.15,4.375-3.78,6.615q8.155-8.155,9.905-8.155q0.175-0.035,0.315-0.035q0.98,0,0.98,0.875q0,0.175-0.07,0.35t-1.4,1.89q-1.54,1.82-2.6075,3.5t-1.0675,2.8t0.49,1.12q1.54,0,5.355-4.235q0.07-0.07,0.245-0.315q0.525-0.63,0.63-0.63t0.105,0.35t-0.49,0.91q-4.34,4.935-6.16,4.935q-1.715,0-1.715-1.89t1.4-4.34l2.24-3.64q-2.38,1.75-4.235,3.8325t-3.3775,4.0425t-1.7675,1.96q-0.525,0-0.8225-0.4375t-0.2975-1.085t0.455-1.7325t1.155-2.625l-2.1,2.205q-0.77,0.77-0.9625,0.77t-0.1925-0.2275t0.28-0.5075q1.295-1.295,2.24-2.485q0.91-1.19,3.745-4.55q0.315-0.42,0.665-0.42z M252.1964,35.395q3.92-6.37,5.46-6.37q0.245,0,0.6825,0.1575t0.4375,0.4725q0,0.175-0.175,0.455q-2.8,3.43-4.165,5.145q-4.13,5.215-4.55,7.49q-0.105,0.49-0.105,0.98q0,1.575,1.295,1.575q2.59,0,6.755-4.795q0.35-0.35,0.595-0.4025t0.245,0.1225t-0.21,0.42q-4.06,4.865-7.21,5.425q-0.175,0.035-0.49,0.035q-1.085,0-1.6275-0.7525t-0.5425-1.6275q0-0.98,0.385-2.17l-2.835,2.835q-1.925,1.785-3.0275,1.785t-1.8375-0.595q-0.875-0.665-0.875-1.855q0-2.555,3.57-6.1075t6.545-3.5525q0.98,0,1.365,0.525q0.14,0.175,0.315,0.805z M241.8714,44.145q0,1.26,0.875,1.26q1.505,0,5.005-4.13q0.63-0.735,4.2-5.495q-0.245-0.42-0.84-0.42q-2.17,0-5.705,3.3075t-3.535,5.4775z M260.39235,46.455q-0.385,0-0.7-0.105q-2.24-0.63-2.24-2.52q0-2.45,3.08-5.67t5.53-3.22q0.805,0,1.3125,0.4375t0.5075,1.0675q0,1.96-2.9575,3.745t-4.8125,1.785q-0.28,0-0.49-0.07q-0.525,0.945-0.525,1.995q0,1.82,1.7325,1.82t4.4975-2.345q2.135-1.715,3.64-3.64q0.315-0.42,0.5425-0.42t0.2275,0.21t-0.28,0.595q-1.89,2.485-4.55,4.41t-4.515,1.925z M267.00735,36.375q0-0.42-0.8925-0.42t-2.5375,1.365q-2.205,1.82-3.43,3.815q0.21,0.07,0.455,0.07q1.33,0,3.5525-1.4175t2.7825-3.0975q0.07-0.175,0.07-0.315z M271.4933,44.565q-1.4,0.98-1.995,0.98q-0.805,0-0.805-0.875q0-0.315,0.21-0.77t0.42-0.455q0.315,0,0.14,0.525q-0.105,0.525,0.315,0.525t1.015-0.42l-1.33-1.015q-0.07-0.07-0.07-0.245t0.35-0.5075t0.5425-0.3325t1.6975,1.19q4.34-4.9,6.37-6.44q-2.765-0.84-4.095-0.84q-0.385,0-0.735,0.0525t-0.7525,0.42t-0.4025,0.8225t0.385,0.7525t0.385,0.4725t-0.2625,0.175t-0.8575-0.7q-0.56-0.7-0.56-1.435q0-1.225,1.785-1.61q0.945-0.175,1.925-0.175t4.83,1.26q0.49-0.28,1.05-0.28q1.47,0,1.47,0.875q0,0.35-0.455,0.6475t-1.085,0.2975t-1.155-0.245q-3.325,2.065-7.14,6.51l1.26,0.98q1.505,0.98,3.5,0.98t2.94-0.63t0.945-1.61q0-0.455-0.175-0.8575t0.315-0.4025q0.175,0,0.35,0.4025t0.175,0.9625q0,1.4-1.33,2.31t-3.43,0.91q-2.31,0-3.815-0.875q-0.595-0.315-1.925-1.33z M287.87925,36.9l3.395,0.035q2.03,0,2.905-0.105q0.035,0.035,0.035,0.105q0,0.525-2.765,1.015q-1.505,0.21-2.8175,0.4375t-1.68,0.2275t-1.225-0.1575t-0.8575-0.6825q0-0.35,0.2975-0.595t0.5075-0.245t0.42-0.035l0.91,0l0.875,0z M316.1652,36.55q-1.75,0-3.255-0.28q0.49,1.54,2.065,6.965q0.49,1.575,1.54,3.185q1.435,2.065,2.66,2.065q1.47,0,2.45-2.975q0.175-0.7,0.3675-0.7t0.28,0.4025t0.0875,0.5425q0,0.875-0.98,2.24q-1.295,1.925-2.835,1.925t-2.835-1.54t-2.5375-5.6175t-1.2425-5.1975q0-0.175,0.035-0.28q-4.2,5.565-6.02,7.35q-4.06,3.955-8.295,3.955q-2.975,0-2.975-2.24q0-1.12,0.7-2.4675t1.715-2.3625t1.785-1.015q0.14,0,0.14,0.07q0,0.175-0.875,0.875t-1.68,1.9775t-0.805,2.3275q0,1.855,2.485,1.855q4.655,0,12.81-10.92q0.455-0.595,0.77-0.84l-0.56-0.21q-0.455,0.175-0.735,0.175q-0.735,0-0.735-0.595q0-0.805,1.085-1.05q0.14-0.035,0.245-0.035q0.63,0,1.47,0.63q3.08-3.43,3.15-3.5q2.555-2.625,3.4475-2.625t0.8925,0.77q0,0.35-0.1575,0.665t-0.3675,0.315q-0.21,0.07-0.21-0.21q0-0.14,0.21-0.42q0.035-0.49-0.315-0.49q-1.12,0-5.425,5.95q1.05,0.07,1.75,0.07q8.12,0,10.15-4.2q0.42-0.91,0.42-1.68q0-1.54-1.4-2.66q-2.24-1.82-7.28-1.82t-10.29,2.555q-6.37,3.115-6.37,7.315q0,1.365,1.715,1.365t3.64-1.26t2.59-2.485q0.245-0.455,0.4725-0.455t0.1225,0.28q-0.665,1.96-2.9575,3.3425t-4.7775,1.3825t-2.485-1.575l0-0.245q0.525-4.585,5.6175-7.7875t12.2675-3.2025q6.685,0,9.485,2.31q1.68,1.4,1.68,3.29q0,0.805-0.385,1.75q-1.085,2.555-4.445,3.7975t-7.07,1.2425z M333.14615,38.58q0,1.225-2.345,4.095q-2.765,3.395-4.725,3.395l-0.56,0q-0.91,0-1.435-0.945q-0.42-0.665-0.42-1.47q0-2.1,3.0625-5.8975t4.9525-3.7975q1.785,0,1.785,1.89q0,0.49-0.175,1.26q0.035,0.105,0.665,0.105t1.925-0.665q-0.035,0.595-2.765,1.715q0.035,0.14,0.035,0.315z M330.87115,36.76q-1.19,0-3.3775,2.8t-2.1875,4.13t0.84,1.33q1.505,0,3.815-2.73t2.31-3.92q-0.56-0.315-1.4-1.61z M341.8321,45.475q-1.015,0.595-2.5025,0.595t-2.275-0.98t-1.3475-3.115q-0.63,0.63-0.875,0.63q-0.175,0-0.175-0.245t0.175-0.42q1.155-1.435,3.92-4.13l4.41-4.13q1.89-1.785,2.24-1.785q1.12,0,1.12,0.84q0,0.42-0.3325,0.8225t-0.49,0.63t-0.3325,0.4375q-0.63,1.085-1.2775,4.48t-0.9975,4.725q2.905-0.035,5.985-3.78q0.35-0.35,0.525-0.35t0.175,0.2275t-0.315,0.6125q-2.03,2.38-3.78,3.325q-1.05,0.525-2.73,0.875z M337.1071,41.59q0,1.19,0.7875,1.9425t1.7675,0.7525t1.505-0.385q0.7-0.385,1.3825-3.22t0.8225-5.005l0.14-1.19q-1.925,1.435-4.1125,3.71t-2.2575,3.01q-0.035,0.21-0.035,0.385z M355.94305,45.475q-1.015,0.595-2.5025,0.595t-2.275-0.98t-1.3475-3.115q-0.63,0.63-0.875,0.63q-0.175,0-0.175-0.245t0.175-0.42q1.155-1.435,3.92-4.13l4.41-4.13q1.89-1.785,2.24-1.785q1.12,0,1.12,0.84q0,0.42-0.3325,0.8225t-0.49,0.63t-0.3325,0.4375q-0.63,1.085-1.2775,4.48t-0.9975,4.725q2.905-0.035,5.985-3.78q0.35-0.35,0.525-0.35t0.175,0.2275t-0.315,0.6125q-2.03,2.38-3.78,3.325q-1.05,0.525-2.73,0.875z M351.21805,41.59q0,1.19,0.7875,1.9425t1.7675,0.7525t1.505-0.385q0.7-0.385,1.3825-3.22t0.8225-5.005l0.14-1.19q-1.925,1.435-4.1125,3.71t-2.2575,3.01q-0.035,0.21-0.035,0.385z"/><path fill="#" d=""/></svg>
